# xmcd
#
# Track frame offsets:
#	150
#	16725
#	51685
#	60775
#	81250
#	123305
#	139792
#	146800
#	170140
#	203400
#	218692
#
# Disc length: 3123 seconds
#
# Revision: 5
# Processed by: cddbd v1.5.2PL0 Copyright (c) Steve Scherf et al.
# Submitted via: audiograbber 1.83.01
#
DISCID=9b0c310b
DTITLE=Clair de Lune - Romantische Klavierkompositionen
DYEAR=1999
DGENRE=Classical
TTITLE0=Romanze Nr. 5 Op. 118 F-Dur
TTITLE1=Impromptu D 899 Nr. 4 Op. 90 As-Dur
TTITLE2=Spinnerlied
TTITLE3=Nocturne Op. 9
TTITLE4=Aufforderung zum Tanz Op. 65
TTITLE5=Tuerkischer Marsch
TTITLE6=Von fremden Laendern und Menschen
TTITLE7=Clair de Lune
TTITLE8=Impromptu D 935 Nr. 2 Op. 142 As-Dur
TTITLE9=Gnomerreigen Konzert-Etuede Nr. 2 fuer Klavier
TTITLE10=Romanze Nr. 2 Op. 28 Fis-Dur
EXTD=YEAR: 1999\nRomantische Klavierkompositionen\n"Clair de Lune"
EXTT0=J. Brahms
EXTT1=F. Schubert
EXTT2=F. Mendelsohn-Bartholdy
EXTT3=A. Scriabin
EXTT4=C.M.V. Weber
EXTT5=W.A. Mozart
EXTT6=R. Schumann
EXTT7=C. Debussy
EXTT8=F. Schubert
EXTT9=F. Liszt
EXTT10=R. Schumann
PLAYORDER=
